<?xml version="1.0" standalone="no"?><!DOCTYPE svg PUBLIC "-//W3C//DTD SVG 1.1//EN" "http://www.w3.org/Graphics/SVG/1.1/DTD/svg11.dtd"><svg t="1556878059049" class="icon" style="" viewBox="0 0 1024 1024" version="1.1" xmlns="http://www.w3.org/2000/svg" p-id="1600" xmlns:xlink="http://www.w3.org/1999/xlink" width="200" height="200"><defs><style type="text/css"></style></defs><path d="M1008.712033 405.439946l-58.319417 57.03643-159.718403-158.428416 58.324417-57.03943c17.729823-17.734823 45.624544-20.279797 60.824392-5.076949l105.213948 102.680973C1028.99683 359.800402 1026.446856 387.690123 1008.712033 405.439946L1008.712033 405.439946 1008.712033 405.439946 1008.712033 405.439946 1008.712033 405.439946zM762.810492 330.650693l160.97839 157.168428L540.98871 865.549345c-1.269987 1.264987-6.364936 6.344937-13.949861 7.604924-1.254987 0-1.254987 0-2.544975 1.264987l-200.267997 62.129379c-5.071949 1.269987-11.411886 1.269987-15.221848-2.544975-3.792962-3.789962-5.062949-8.869911-2.549975-15.219848l63.394366-196.477035c0-1.244988 0-1.244988 1.271987-2.529975 1.257987-6.354936 6.336937-13.939861 8.844912-15.219848l73.529265-67.179328L210.157018 637.377626c-10.151898 0-19.02181-11.434886-19.02181-20.269797 0-10.169898 8.869911-21.559784 19.02181-21.559784l281.389186 0L762.810492 330.650693 762.810492 330.650693zM491.546205 852.874471l-98.884011-97.589024-26.621734 82.399176 41.831582 41.824582L491.546205 852.874471 491.546205 852.874471zM757.730543 392.765072c-5.074949-5.059949-15.224848-5.059949-20.279797 0L437.01675 686.836132c-6.334937 5.059949-6.334937 15.204848 0 20.274797 5.076949 5.069949 15.226848 5.069949 20.286797 0l299.146009-294.064059C762.810492 407.97292 762.810492 399.100009 757.730543 392.765072L757.730543 392.765072 757.730543 392.765072 757.730543 392.765072 757.730543 392.765072zM89.719223 966.96333c-10.126899 0-20.261797-3.809962-20.261797-13.939861L69.457425 151.933481c-1.264987-19.01681 11.411886-15.201848 25.339747-15.201848l69.714303 0 0 26.616734c0 10.146899 11.399886 19.01681 22.814772 19.01681 10.151898 0 22.831772-8.869911 22.831772-19.01681l0-26.616734 103.935961 0 0 26.616734c0 10.146899 11.396886 19.01681 22.814772 19.01681 10.151898 0 22.831772-8.869911 22.831772-19.01681l0-26.616734 95.064049 0 0 26.616734c0 10.146899 11.399886 19.01681 22.819772 19.01681 10.161898 0 22.826772-8.869911 22.826772-19.01681l0-26.616734 95.071049 0 0 26.616734c0 10.146899 11.414886 19.01681 22.824772 19.01681 10.144899 0 22.824772-8.869911 22.824772-19.01681l0-26.616734 79.839202 0c10.149899 0 16.489835 5.054949 16.489835 15.201848l0 131.828682 58.324417-57.03443 0-74.794252c0-41.829582-31.694683-72.244278-74.814252-72.244278l-81.114189 0L639.896721 30.237698c0-10.151898-11.409886-19.01681-22.829772-19.01681-10.134899 0-22.809772 8.864911-22.809772 19.01681l0 49.434506-95.071049 0L499.186128 30.237698c0-10.151898-11.399886-19.01681-22.834772-19.01681-10.146899 0-22.804772 8.864911-22.804772 19.01681l0 49.434506-95.074049 0L358.472535 30.237698c0-10.151898-11.411886-19.01681-22.826772-19.01681-10.151898 0-22.814772 8.864911-22.814772 19.01681l0 49.434506L208.887031 79.672203 208.887031 30.237698c0-10.151898-11.409886-19.01681-22.826772-19.01681-10.149899 0-22.811772 8.864911-22.811772 19.01681l0 49.434506L94.796172 79.672203c-57.03643 0-84.921151 30.411696-84.921151 72.244278l0 799.822002c0 41.809582 38.01662 72.249278 81.131189 72.249278l628.709713 0c43.094569 0 74.789252-30.439696 74.789252-72.249278L794.505175 675.406246l-58.314417 57.03443 0 220.536795c0 10.159898-6.339937 13.95486-16.474835 13.95486M587.867241 296.441036 208.887031 296.441036c-10.149899 0-17.734823 12.661873-17.734823 21.529785 0 10.146899 7.604924 21.549785 17.734823 21.549785l378.98021 0c10.164898 0 17.749823-12.681873 17.749823-21.549785C605.617064 309.103909 598.01714 296.441036 587.867241 296.441036L587.867241 296.441036 587.867241 296.441036 587.867241 296.441036 587.867241 296.441036zM587.867241 442.197578 208.887031 442.197578c-10.149899 0-17.734823 12.661873-17.734823 21.544785 0 10.149899 7.604924 21.529785 17.734823 21.529785l378.98021 0c10.164898 0 17.749823-12.676873 17.749823-21.529785C605.617064 454.859451 598.01714 442.197578 587.867241 442.197578L587.867241 442.197578 587.867241 442.197578 587.867241 442.197578 587.867241 442.197578z" p-id="1601"></path></svg>