<?xml version="1.0" standalone="no"?><!DOCTYPE svg PUBLIC "-//W3C//DTD SVG 1.1//EN" "http://www.w3.org/Graphics/SVG/1.1/DTD/svg11.dtd"><svg t="1562680187786" class="icon" viewBox="0 0 1024 1024" version="1.1" xmlns="http://www.w3.org/2000/svg" p-id="3015" xmlns:xlink="http://www.w3.org/1999/xlink" width="150" height="150"><defs><style type="text/css"></style></defs><path d="M734.72 373.76v-28.16h-448v33.28l217.6 153.6h2.56l227.84-158.72c0 2.56 0 2.56 0 0z m0 40.96l-212.48 145.92c-10.24 7.68-25.6 7.68-35.84 0l-199.68-140.8v261.12h448v-266.24z m-445.44-102.4h448c17.92 0 30.72 15.36 30.72 33.28v332.8c0 17.92-15.36 33.28-30.72 33.28h-448c-17.92 0-30.72-15.36-30.72-33.28v-332.8c-2.56-17.92 12.8-33.28 30.72-33.28z" fill="#333333" p-id="3016"></path><path d="M734.72 716.8h-448c-20.48 0-35.84-17.92-35.84-38.4v-332.8c0-20.48 15.36-38.4 35.84-38.4h448c20.48 0 35.84 17.92 35.84 38.4v332.8c2.56 20.48-15.36 38.4-35.84 38.4z m-445.44-399.36c-15.36 0-28.16 12.8-28.16 28.16v332.8c0 15.36 12.8 28.16 28.16 28.16h448c15.36 0 28.16-12.8 28.16-28.16v-332.8c0-15.36-12.8-28.16-28.16-28.16h-448z m450.56 366.08h-455.68V409.6l204.8 145.92c10.24 7.68 23.04 7.68 33.28 0l217.6-148.48v276.48z m-448-10.24h440.32v-250.88l-204.8 140.8c-12.8 7.68-28.16 7.68-40.96 0l-192-135.68v245.76z m215.04-138.24h-2.56l-220.16-156.16v-38.4h455.68v35.84h-2.56l-227.84 156.16-2.56 2.56z m-215.04-158.72l212.48 151.04 225.28-153.6v-23.04h-440.32v25.6z" fill="#333333" p-id="3017"></path></svg>