<?xml version="1.0" standalone="no"?><!DOCTYPE svg PUBLIC "-//W3C//DTD SVG 1.1//EN" "http://www.w3.org/Graphics/SVG/1.1/DTD/svg11.dtd"><svg t="1562669965913" class="icon" viewBox="0 0 1024 1024" version="1.1" xmlns="http://www.w3.org/2000/svg" p-id="2277" xmlns:xlink="http://www.w3.org/1999/xlink" width="150" height="150"><defs><style type="text/css"></style></defs><path d="M757.248 53.248c-5.632-11.776-13.312-20.48-22.528-26.624-9.216-6.144-19.456-9.728-30.72-9.728h-384c-16.896 0-31.744 7.168-43.52 20.992-11.776 14.336-17.92 31.744-17.92 52.736V936.96c0 20.992 6.144 38.4 17.92 52.736 11.776 14.336 26.624 20.992 43.52 20.992h384c3.584 0 7.68-0.512 11.264-1.024 3.584-0.512 7.168-2.048 10.752-3.584 3.072-1.536 6.656-3.584 9.728-5.632 3.072-2.048 5.632-4.608 8.192-7.168 2.56-2.56 5.12-5.632 7.168-8.192 2.048-3.072 4.608-6.144 6.144-10.24 1.536-3.584 3.072-7.68 4.608-11.776 1.024-4.096 2.048-8.192 3.072-12.8 0.512-4.608 1.024-9.216 1.024-13.312V90.624c-0.512-13.312-3.072-26.112-8.704-37.376zM512 964.096c-25.088 0-45.056-20.48-45.056-45.056s20.48-45.056 45.056-45.056c25.088 0 45.056 20.48 45.056 45.056s-19.968 45.056-45.056 45.056z m207.872-145.408H304.128V141.312h415.232v677.376z" fill="#333333" p-id="2278"></path></svg>