<?xml version="1.0" standalone="no"?><!DOCTYPE svg PUBLIC "-//W3C//DTD SVG 1.1//EN" "http://www.w3.org/Graphics/SVG/1.1/DTD/svg11.dtd"><svg t="1556895952818" class="icon" style="" viewBox="0 0 1024 1024" version="1.1" xmlns="http://www.w3.org/2000/svg" p-id="4631" xmlns:xlink="http://www.w3.org/1999/xlink" width="200" height="200"><defs><style type="text/css"></style></defs><path d="M515.072 600.064c-74.752 0-135.68-60.928-135.68-135.68s60.928-135.68 135.68-135.68 135.68 60.928 135.68 135.68-60.928 135.68-135.68 135.68z m0-220.16c-46.592 0-84.48 37.888-84.48 84.48s37.888 84.48 84.48 84.48 84.48-37.888 84.48-84.48-37.888-84.48-84.48-84.48z" p-id="4632"></path><path d="M513.536 362.496c-14.336 0-25.6-11.264-25.6-25.6V296.96c0-14.336 11.264-25.6 25.6-25.6s25.6 11.264 25.6 25.6v39.936c0 14.336-11.264 25.6-25.6 25.6z m-90.112 37.888c-6.656 0-13.312-2.56-18.432-7.68l-27.648-28.16c-9.728-10.24-9.728-26.112 0.512-36.352 10.24-9.728 26.112-9.728 36.352 0.512l27.648 28.16c9.728 10.24 9.728 26.112-0.512 36.352-5.12 4.608-11.264 7.168-17.92 7.168z m-36.352 90.624h-39.424c-14.336 0-25.6-11.264-25.6-25.6s11.264-25.6 25.6-25.6h39.424c14.336 0 25.6 11.264 25.6 25.6s-11.264 25.6-25.6 25.6zM396.8 609.28c-6.656 0-13.312-2.56-17.92-7.68-10.24-10.24-10.24-26.112 0-36.352l28.672-28.672c10.24-10.24 26.112-10.24 36.352 0s10.24 26.112 0 36.352L415.232 601.6c-5.12 5.12-11.776 7.68-18.432 7.68z m119.296 48.128c-14.336 0-25.6-11.264-25.6-25.6v-39.936c0-14.336 11.264-25.6 25.6-25.6s25.6 11.264 25.6 25.6v39.936c0 14.336-11.264 25.6-25.6 25.6z m117.76-49.664c-6.656 0-13.312-2.56-17.92-7.68l-28.16-28.16c-10.24-10.24-10.24-26.112 0-36.352s26.112-10.24 36.352 0l28.16 28.16c10.24 10.24 10.24 26.112 0 36.352-5.12 5.12-11.776 7.68-18.432 7.68z m48.64-118.784H642.56c-14.336 0-25.6-11.264-25.6-25.6s11.264-25.6 25.6-25.6h39.936c14.336 0 25.6 11.264 25.6 25.6s-11.264 25.6-25.6 25.6z m-78.336-89.6c-6.656 0-13.312-2.56-17.92-7.68-10.24-10.24-10.24-26.112 0-36.352l28.672-28.672c10.24-10.24 26.112-10.24 36.352 0s10.24 26.112 0 36.352l-28.672 28.672c-5.12 5.12-11.776 7.68-18.432 7.68z" p-id="4633"></path><path d="M978.432 819.2H51.2c-14.336 0-25.6-11.264-25.6-25.6V133.12c0-14.336 11.264-25.6 25.6-25.6h927.232c14.336 0 25.6 11.264 25.6 25.6V793.6c0 14.336-11.264 25.6-25.6 25.6zM76.8 768h876.032V158.72H76.8V768z m649.728 228.352H303.104c-14.336 0-25.6-11.264-25.6-25.6s11.264-25.6 25.6-25.6h423.424c14.336 0 25.6 11.264 25.6 25.6s-11.264 25.6-25.6 25.6z" p-id="4634"></path><path d="M515.072 960c-14.336 0-25.6-11.264-25.6-25.6V808.96c0-14.336 11.264-25.6 25.6-25.6s25.6 11.264 25.6 25.6V934.4c0 14.336-11.264 25.6-25.6 25.6z" p-id="4635"></path></svg>