<?xml version="1.0" standalone="no"?><!DOCTYPE svg PUBLIC "-//W3C//DTD SVG 1.1//EN" "http://www.w3.org/Graphics/SVG/1.1/DTD/svg11.dtd"><svg t="1562680476302" class="icon" viewBox="0 0 1341 1024" version="1.1" xmlns="http://www.w3.org/2000/svg" p-id="6833" xmlns:xlink="http://www.w3.org/1999/xlink" width="196.435546875" height="150"><defs><style type="text/css"></style></defs><path d="M1244.902 160.839V89.44H96.892v79.166l556.95 379.55c1.024 0.707 2.189 0.707 3.354-0.105l583.186-384.636c1.412-0.953 2.966-1.765 4.52-2.542v-0.035z m0 97.845L702.746 616.2a84.604 84.604 0 0 1-95.055-0.283L96.891 267.83v641.589h1148.01v-650.77zM96.892 7.415h1148.01a81.99 81.99 0 0 1 81.99 81.99v819.978a81.99 81.99 0 0 1-81.99 81.99H96.892a81.99 81.99 0 0 1-81.991-81.99V89.37a81.99 81.99 0 0 1 81.99-81.99z" p-id="6834"></path></svg>