<?xml version="1.0" standalone="no"?><!DOCTYPE svg PUBLIC "-//W3C//DTD SVG 1.1//EN" "http://www.w3.org/Graphics/SVG/1.1/DTD/svg11.dtd"><svg t="1561110050301" class="icon" viewBox="0 0 1024 1024" version="1.1" xmlns="http://www.w3.org/2000/svg" p-id="1769" xmlns:xlink="http://www.w3.org/1999/xlink" width="200" height="200"><defs><style type="text/css"></style></defs><path d="M820 400h-28v-56c0-154.6-125.4-280-280-280S232 189.4 232 344v56h-28c-30.9 0-56 25.1-56 56v448c0 30.9 25.1 56 56 56h616c30.9 0 56-25.1 56-56V456c0-30.9-25.1-56-56-56z m-532-56c0-123.5 100.5-224 224-224s224 100.5 224 224v56H288v-56z m532 560H204V456h616v448z" p-id="1770"></path><path d="M512 568c-15.5 0-28 12.5-28 28v168c0 15.5 12.5 28 28 28s28-12.5 28-28V596c0-15.5-12.5-28-28-28z" p-id="1771"></path></svg>