<?xml version="1.0" standalone="no"?><!DOCTYPE svg PUBLIC "-//W3C//DTD SVG 1.1//EN" "http://www.w3.org/Graphics/SVG/1.1/DTD/svg11.dtd"><svg t="1562680987873" class="icon" viewBox="0 0 1333 1024" version="1.1" xmlns="http://www.w3.org/2000/svg" p-id="7890" xmlns:xlink="http://www.w3.org/1999/xlink" width="195.263671875" height="150"><defs><style type="text/css"></style></defs><path d="M1163.11804 0H166.162435C74.405345 0 0 87.138827 0 194.613215v632.492947c0 107.493393 74.405345 194.613215 166.162435 194.613214H1163.11804c91.776095 0 166.162435-87.138827 166.162435-194.613214V194.613215C1329.318486 87.138827 1254.932146 0 1163.11804 0zM83.071715 255.429844L373.83222 510.783667l-290.77951 255.429845z m1163.11804 571.676318c0 53.708686-37.307201 97.306607-83.071715 97.306607H166.162435c-45.821529 0-83.071715-43.597921-83.071715-97.306607l325.349963-285.91418 181.461618 159.434596c44.301114 38.903638 105.212769 38.903638 149.513883 0l181.480624-159.434596z m0-60.81663L955.448255 510.783667l290.77951-255.429844z m-531.765405-104.528582a73.512101 73.512101 0 0 1-99.663251 0l-171.730958-150.977283-34.608463-30.408314L83.071715 194.67023c0-53.65167 37.269191-97.306607 83.071715-97.306607H1163.11804c45.783519 0 83.071715 43.711952 83.071715 97.306607z m0 0" fill="#333333" p-id="7891"></path></svg>